<svg width="120" height="260" viewBox="0 0 120 260" xmlns="http://www.w3.org/2000/svg" role="img" aria-labelledby="sneakerTitle sneakerDesc">
  <title id="sneakerTitle">Top-down sneaker illustration</title>
  <desc id="sneakerDesc">A stylized sneaker viewed from above for animation.</desc>
  <defs>
    <linearGradient id="shoeBody" x1="0%" y1="0%" x2="100%" y2="100%">
      <stop offset="0%" stop-color="#ea5a3d" />
      <stop offset="100%" stop-color="#b92d1b" />
    </linearGradient>
    <linearGradient id="sole" x1="0%" y1="0%" x2="0%" y2="100%">
      <stop offset="0%" stop-color="#f7f0e6" />
      <stop offset="100%" stop-color="#d6cec4" />
    </linearGradient>
    <linearGradient id="tongue" x1="0%" y1="0%" x2="100%" y2="100%">
      <stop offset="0%" stop-color="#ffd777" />
      <stop offset="100%" stop-color="#f0a229" />
    </linearGradient>
  </defs>

  <g fill="none" stroke="#541913" stroke-width="5" stroke-linejoin="round">
    <path d="M15 40 Q60 5 105 40 L105 210 Q60 255 15 210 Z" fill="url(#shoeBody)" />
    <path d="M38 45 Q60 25 82 45 L82 175 Q60 195 38 175 Z" fill="url(#tongue)" />
    <path d="M20 210 Q60 240 100 210 L100 220 Q60 255 20 220 Z" fill="url(#sole)" />
    <path d="M20 40 Q60 15 100 40" fill="url(#sole)" />
  </g>

  <g stroke="#fefaf3" stroke-width="7" stroke-linecap="round">
    <path d="M34 80 L86 140" />
    <path d="M86 80 L34 140" />
    <path d="M34 120 L86 180" />
    <path d="M86 120 L34 180" />
  </g>

  <g stroke="#541913" stroke-width="4" stroke-linecap="round">
    <path d="M60 40 L60 190" />
    <path d="M40 50 L80 50" />
    <path d="M40 60 L80 60" />
  </g>
</svg>
